<?xml version="1.0" encoding="UTF-8" standalone="no"?>
<!-- Generator: Adobe Illustrator 16.0.0, SVG Export Plug-In . SVG Version: 6.00 Build 0)  -->

<svg
   xmlns:dc="http://purl.org/dc/elements/1.1/"
   xmlns:cc="http://creativecommons.org/ns#"
   xmlns:rdf="http://www.w3.org/1999/02/22-rdf-syntax-ns#"
   xmlns:svg="http://www.w3.org/2000/svg"
   xmlns="http://www.w3.org/2000/svg"
   xmlns:sodipodi="http://sodipodi.sourceforge.net/DTD/sodipodi-0.dtd"
   xmlns:inkscape="http://www.inkscape.org/namespaces/inkscape"
   version="1.1"
   id="bread"
   x="0px"
   y="0px"
   width="233px"
   height="183px"
   viewBox="0 0 233 183"
   enable-background="new 0 0 233 183"
   xml:space="preserve"
   inkscape:version="0.91 r13725"
   sodipodi:docname="daily-bread.svg"><metadata
     id="metadata48"><rdf:RDF><cc:Work
         rdf:about=""><dc:format>image/svg+xml</dc:format><dc:type
           rdf:resource="http://purl.org/dc/dcmitype/StillImage" /></cc:Work></rdf:RDF></metadata><defs
     id="defs46" /><sodipodi:namedview
     pagecolor="#ffffff"
     bordercolor="#666666"
     borderopacity="1"
     objecttolerance="10"
     gridtolerance="10"
     guidetolerance="10"
     inkscape:pageopacity="0"
     inkscape:pageshadow="2"
     inkscape:window-width="1440"
     inkscape:window-height="851"
     id="namedview44"
     showgrid="false"
     inkscape:zoom="3.8743169"
     inkscape:cx="116.5"
     inkscape:cy="91.5"
     inkscape:window-x="0"
     inkscape:window-y="1"
     inkscape:window-maximized="1"
     inkscape:current-layer="bread" /><path
     style="fill:#c98829"
     inkscape:connector-curvature="0"
     id="path4"
     d="M 217,51.5 C 217,44 214.002,36.5 209.002,30.499 204.002,24.5 197,20.999 189.5,20 c -8.999,-1.501 -20.999,-2.002 -32,-2.5 2.5,2 5,3.999 7.5,6.499 6.499,7.5 12.498,17.5 12.498,27.5 C 177.498,60 172,67 163.499,69 c -3.501,1.001 -6.001,3.999 -6.001,8 L 157,157.375 c 0,3.501 -1.371,6.497 -2.875,9.5 L 187,167 c 5.498,0 10,-4.502 10,-10 l 0,-79.5 C 197,69 202.498,62 210.999,60 214.5,58.499 217,55.499 217,51.5" /><path
     style="fill:#efcda5"
     inkscape:connector-curvature="0"
     d="M 167,51.5 C 167,36 154.998,22 139.5,20.001 c -15,-2.002 -31.499,-3 -47.5,-3 -16.001,0 -32.5,0.999 -47.5,3 C 29,22.5 17,35.999 17,51.5 c 0,3.999 2.5,7 6.001,8 C 31.5,61.5 37,69 37,77.5 l 0,79.5 c 0,5.498 4.5,10 10,10 l 90,0 c 5.498,0 10,-4.502 10,-10 l 0,-79.5 C 147,69 152.498,62 160.999,60 164.5,58.499 167,55.499 167,51.5"
     id="crust" /><path
     style="fill:#014463;fill-opacity:1"
     inkscape:connector-curvature="0"
     id="path7"
     d="M 216.502,25 C 209.5,17.5 200.501,12.5 190.501,10.999 c -13.999,-2 -30,-2.998 -48.999,-2.998 L 113.179,7.596 C 106.13,7.195 99.021,7 92,7 75.501,7 58.499,8.001 43.001,10 22.5,13.001 7,30.999 7,51.5 c 0,8.5 5.5,16 13.999,18 3.501,1.001 6.001,3.999 6.001,8 l 0,79.5 c 0,11.001 8.999,20 20,20 l 140,0 c 11.001,0 20,-8.999 20,-20 l 0,-78.999 c 0,-4.001 2.5,-7.002 6.001,-8 C 221.502,68.001 227,61 227,52.501 227,42.5 223.001,32.5 216.502,25 Z M 37,157 37,77.5 C 37,69 31.5,61.5 23.001,59.5 19.5,58.499 17,55.501 17,51.5 17,35.999 29,22.5 44.5,20 c 15,-2 31.499,-3 47.5,-3 4.334,0 8.704,0.081 13.072,0.238 0.464,0.168 0.946,0.263 1.428,0.263 11.501,0.5 22.502,1.499 33,3 0.632,0.084 1.26,0.193 1.884,0.313 8.226,1.605 15.321,6.596 19.946,13.315 3.584,5.38 5.67,11.624 5.67,17.871 0,3.999 -2.5,7 -6.001,8 C 152.498,62 147,69 147,77.5 l 0,79.5 c 0,5.498 -4.502,10 -10,10 l -90,0 c -5.5,0 -10,-4.502 -10,-10 z M 210.999,60 C 202.498,62 197,69 197,77.5 l 0,79.5 c 0,5.498 -4.502,10 -10,10 l -32.5,0 c 1.499,-2.998 2.5,-6.499 2.998,-10 l 0,-79.5 c 0,-4.001 2.5,-7 6.001,-8 8.501,-2 13.999,-8.999 13.999,-17.5 0,-10 -3.999,-20 -10.498,-27.5 -0.901,-0.901 -1.802,-1.723 -2.703,-2.517 -1.482,-1.439 -3.073,-2.768 -4.758,-3.98 10.985,0.497 20.973,0.999 29.961,2.498 7.5,0.999 14.502,4.5 19.502,10.498 C 214.002,37 217,44.5 217,52 c 0,3.999 -2.5,7 -6.001,8 z" /><path
     style="fill:#e9cba4"
     inkscape:connector-curvature="0"
     id="path9"
     d="m 154.5,26.5 c 5,5.5 7.5,12.5 7.5,20.5 0,3.999 -2.5,7 -6.001,8 C 147.498,57 142,64.5 142,72.5 l 0,84.5 c 0,2.998 -2.002,5 -5,5 l -98.501,0 c 2.002,2.998 5,5 8.501,5 l 90,0 c 5.498,0 10,-4.502 10,-10 l 0,-79.5 c 0,-8.501 5.498,-16.001 13.501,-18 3.999,-1.001 6.499,-4.001 6.499,-8 0,-10 -5,-19 -12.5,-25" /><g
     id="holes"><path
       style="fill:#e2a359"
       inkscape:connector-curvature="0"
       id="path12"
       d="m 92,37.5 c 2.759,0 5,2.241 5,5 0,2.761 -2.241,5 -5,5 -2.759,0 -5,-2.239 -5,-5 0,-2.758 2.241,-5 5,-5" /><path
       style="fill:#e2a359"
       inkscape:connector-curvature="0"
       id="path14"
       d="m 122,37.5 c 2.759,0 5,2.241 5,5 0,2.761 -2.241,5 -5,5 -2.759,0 -5,-2.239 -5,-5 0,-2.758 2.241,-5 5,-5" /><path
       style="fill:#e2a359"
       inkscape:connector-curvature="0"
       id="path16"
       d="m 107,57.5 c 2.759,0 5,2.241 5,5 0,2.761 -2.241,5 -5,5 -2.759,0 -5,-2.239 -5,-5 0,-2.758 2.241,-5 5,-5" /><path
       style="fill:#e2a359"
       inkscape:connector-curvature="0"
       id="path18"
       d="m 62,37.5 c 2.759,0 5,2.241 5,5 0,2.761 -2.241,5 -5,5 -2.759,0 -5,-2.239 -5,-5 0,-2.758 2.241,-5 5,-5" /><path
       style="fill:#e2a359"
       inkscape:connector-curvature="0"
       id="path20"
       d="m 92,77.5 c 2.759,0 5,2.241 5,5 0,2.761 -2.241,5 -5,5 -2.759,0 -5,-2.239 -5,-5 0,-2.758 2.241,-5 5,-5" /><path
       style="fill:#e2a359"
       inkscape:connector-curvature="0"
       id="path22"
       d="m 122,77.5 c 2.759,0 5,2.241 5,5 0,2.761 -2.241,5 -5,5 -2.759,0 -5,-2.239 -5,-5 0,-2.758 2.241,-5 5,-5" /><path
       style="fill:#e2a359"
       inkscape:connector-curvature="0"
       id="path24"
       d="m 62,77.5 c 2.759,0 5,2.241 5,5 0,2.761 -2.241,5 -5,5 -2.759,0 -5,-2.239 -5,-5 0,-2.758 2.241,-5 5,-5" /><path
       style="fill:#e2a359"
       inkscape:connector-curvature="0"
       id="path26"
       d="m 77,57.5 c 2.759,0 5,2.241 5,5 0,2.761 -2.241,5 -5,5 -2.759,0 -5,-2.239 -5,-5 0,-2.758 2.241,-5 5,-5" /><path
       style="fill:#e2a359"
       inkscape:connector-curvature="0"
       id="path28"
       d="m 107,97.503 c 2.759,0 5,2.236 5,5 0,2.759 -2.241,5 -5,5 -2.759,0 -5,-2.241 -5,-5 0,-2.764 2.241,-5 5,-5" /><path
       style="fill:#e2a359"
       inkscape:connector-curvature="0"
       id="path30"
       d="m 77,97.503 c 2.759,0 5,2.236 5,5 0,2.759 -2.241,5 -5,5 -2.759,0 -5,-2.241 -5,-5 0,-2.764 2.241,-5 5,-5" /><path
       style="fill:#e2a359"
       inkscape:connector-curvature="0"
       id="path32"
       d="m 92,117.503 c 2.759,0 5,2.236 5,5 0,2.759 -2.241,5 -5,5 -2.759,0 -5,-2.241 -5,-5 0,-2.764 2.241,-5 5,-5" /><path
       style="fill:#e2a359"
       inkscape:connector-curvature="0"
       id="path34"
       d="m 122,117.503 c 2.759,0 5,2.236 5,5 0,2.759 -2.241,5 -5,5 -2.759,0 -5,-2.241 -5,-5 0,-2.764 2.241,-5 5,-5" /><path
       style="fill:#e2a359"
       inkscape:connector-curvature="0"
       id="path36"
       d="m 62,117.503 c 2.759,0 5,2.236 5,5 0,2.759 -2.241,5 -5,5 -2.759,0 -5,-2.241 -5,-5 0,-2.764 2.241,-5 5,-5" /><path
       style="fill:#e2a359"
       inkscape:connector-curvature="0"
       id="path38"
       d="m 107,137.503 c 2.759,0 5,2.236 5,5 0,2.759 -2.241,5 -5,5 -2.759,0 -5,-2.241 -5,-5 0,-2.764 2.241,-5 5,-5" /><path
       style="fill:#e2a359"
       inkscape:connector-curvature="0"
       id="path40"
       d="m 77,137.503 c 2.759,0 5,2.236 5,5 0,2.759 -2.241,5 -5,5 -2.759,0 -5,-2.241 -5,-5 0,-2.764 2.241,-5 5,-5" /></g><path
     style="fill:#8e4c20"
     inkscape:connector-curvature="0"
     id="path42"
     d="m 209.667,31 c -2.998,-3.501 -8.001,-6.5 -12,-8.5 1.001,1.001 3.085,3.499 3.583,4.5 5,5.5 8.003,13 8.003,20.5 0,3.999 -2.5,7.5 -6.001,8 -2.002,0.498 -3.999,1.499 -6.001,2.5 -3.999,2.998 -8.501,4.5 -13.501,4.5 l -1.997,0 c -3.003,0 -5,2 -5,5 0,3 1.997,5 5,5 l 2.5,0 c 2.998,0 5,2 5,5 l 0,74.998 c 0,3.003 -2.002,5 -5,5 l -15,0 c -6.499,0 -12.002,4.004 -15.503,9.502 l 33.003,0 c 1.997,0 3.998,-0.249 5.497,-1.25 2.998,-1.499 5.25,-4.249 5.25,-7.75 l 0.125,-2.625 L 198.753,77 c 0,-8 5.495,-15.029 11.999,-15.999 5.876,-0.875 6.915,-5.333 6.915,-9.335 0,-6.499 -0.833,-12.333 -5.833,-17.833 L 209.667,31 Z" /></svg>